<?xml version="1.0" encoding="UTF-8" standalone="no"?>
<svg
   width="36.723694mm"
   height="8.1873178mm"
   version="1.1"
   viewBox="0 0 36.723693 8.1873176"
   id="svg12"
   sodipodi:docname="logo.svg"
   inkscape:version="1.3.2 (091e20e, 2023-11-25, custom)"
   xmlns:inkscape="http://www.inkscape.org/namespaces/inkscape"
   xmlns:sodipodi="http://sodipodi.sourceforge.net/DTD/sodipodi-0.dtd"
   xmlns="http://www.w3.org/2000/svg"
   xmlns:svg="http://www.w3.org/2000/svg"
   xmlns:rdf="http://www.w3.org/1999/02/22-rdf-syntax-ns#"
   xmlns:cc="http://creativecommons.org/ns#"
   xmlns:dc="http://purl.org/dc/elements/1.1/">
  <sodipodi:namedview
     id="namedview1"
     pagecolor="#ffffff"
     bordercolor="#000000"
     borderopacity="0.25"
     inkscape:showpageshadow="2"
     inkscape:pageopacity="0.0"
     inkscape:pagecheckerboard="0"
     inkscape:deskcolor="#d1d1d1"
     inkscape:document-units="mm"
     inkscape:zoom="7.3686458"
     inkscape:cx="67.312232"
     inkscape:cy="18.931565"
     inkscape:window-width="1920"
     inkscape:window-height="1009"
     inkscape:window-x="1912"
     inkscape:window-y="-8"
     inkscape:window-maximized="1"
     inkscape:current-layer="g10" />
  <defs
     id="defs12" />
  <metadata
     id="metadata1">
    <rdf:RDF>
      <cc:Work
         rdf:about="">
        <dc:format>image/svg+xml</dc:format>
        <dc:type
           rdf:resource="http://purl.org/dc/dcmitype/StillImage" />
      </cc:Work>
    </rdf:RDF>
  </metadata>
  <g
     transform="translate(-84.802,-143.08021)"
     id="g12">
    <g
       transform="matrix(0.35278,0,0,-0.35278,84.802,154.79)"
       id="g11">
      <g
         transform="scale(0.1)"
         id="g10">
        <path
           shape-rendering="geometricPrecision"
           d="m 378.25,99.859 v 102.92 c 0,19.688 -6.367,31.629 -27.375,31.629 -14.004,0 -23.227,-9.031 -28.641,-21.293 -5.73,-13.226 -5.414,-30.648 -5.414,-44.859 V 99.857 h -39.777 v 167.79 h 33.414 l 2.867,-21.621 c 9.86,17.746 29.598,25.817 48.688,25.817 35.328,0 56.015,-25.176 56.015,-60.02 V 99.863 H 378.25"
           fill="#11100e"
           id="path1"
           style="fill:#ffffff;fill-opacity:1" />
        <path
           shape-rendering="geometricPrecision"
           d="m 556,230.88 c -5.332,5.672 -13.496,9.453 -24.785,9.453 -11.914,0 -21.633,-5.039 -27.273,-12.598 -5.645,-7.246 -8.157,-14.804 -8.469,-25.515 h 70.558 c -0.312,12.285 -3.75,21.734 -10.031,28.66 z m 48.914,-57.32 h -109.13 c -0.312,-12.59 4.074,-24.559 11.914,-32.129 5.645,-5.352 13.496,-10.079 24.141,-10.079 11.309,0 18.195,2.204 23.848,7.879 3.437,3.469 6.269,7.864 7.843,13.86 h 37.625 c -0.937,-9.778 -7.531,-22.696 -13.808,-30.246 -13.778,-16.375 -34.18,-22.996 -54.864,-22.996 -22.277,0 -38.578,7.8784 -51.433,20.156 -16.309,15.762 -25.094,38.738 -25.094,65.515 0,26.149 7.84,49.454 23.524,65.52 12.226,12.598 29.793,20.789 52.046,20.789 24.161,0 46.106,-9.766 59.59,-30.234 11.914,-17.957 14.746,-36.532 14.114,-57 0,0 -0.317,-7.578 -0.317,-11.035"
           fill="#11100e"
           id="path2"
           style="fill:#ffffff;fill-opacity:1" />
        <path
           shape-rendering="geometricPrecision"
           d="m 639.71,100.35 v 49.32 h 47.664 V 100.35 H 639.71"
           fill="#11100e"
           id="path3"
           style="fill:#ffffff;fill-opacity:1" />
        <path
           shape-rendering="geometricPrecision"
           d="m 850.18,125.77 c -11.278,-14.219 -31.055,-25.918 -55.821,-25.918 -24.777,0 -45.457,12.011 -56.765,25.918 -12.227,15.488 -17.871,36.039 -17.871,60.078 0,24.023 5.644,44.57 17.871,60.058 11.308,13.91 31.988,25.926 56.765,25.926 24.766,0 44.543,-11.699 55.821,-25.926 7.519,-9.801 11.914,-22.758 12.539,-35.722 h -38.563 c -0.324,6.004 -2.199,11.062 -4.707,15.175 -4.707,7.27 -13.175,12.329 -25.09,12.329 -10.664,0 -18.503,-4.43 -23.835,-10.118 -9.407,-10.429 -10.977,-26.234 -10.977,-41.722 0,-15.508 1.57,-30.996 10.977,-41.426 5.332,-5.684 13.171,-10.43 23.835,-10.43 11.915,0 20.383,5.059 25.09,12.324 2.508,4.122 4.383,9.18 4.707,15.176 h 38.563 c -0.625,-12.949 -5.02,-25.918 -12.539,-35.722"
           fill="#11100e"
           id="path4"
           style="fill:#ffffff;fill-opacity:1" />
        <path
           shape-rendering="geometricPrecision"
           d="m 1001.2,100.35 v 102.96 c 0,19.242 -6.365,31.113 -27.361,31.113 -23.868,0 -34.032,-25.664 -34.032,-46.192 V 100.349 H 900.03 v 231.58 h 39.777 v -82.434 c 9.539,14.113 27.996,21.809 45.172,21.809 35.321,0 56.001,-25.332 56.001,-59.657 v -111.3 h -39.78"
           fill="#11100e"
           id="path5"
           style="fill:#ffffff;fill-opacity:1" />
        <path
           shape-rendering="geometricPrecision"
           d="m 171.08,271.01 -34.863,-170.8 h 68.262 l 34.898,170.5 -68.297,0.309"
           fill="#ee2432"
           id="path6" />
        <path
           shape-rendering="geometricPrecision"
           d="m 176.18,238.85 -2.988,-13.551 h 45.832 l 3.003,13.551 H 176.18"
           fill="#ffffff"
           id="path7" />
        <path
           shape-rendering="geometricPrecision"
           d="m 186.32,209.07 h 13.332 l 9.473,46.043 H 195.797 L 186.32,209.07"
           fill="#ffffff"
           id="path8" />
        <path
           shape-rendering="geometricPrecision"
           d="m 103.52,271 -35.2,-170.33 67.895,-0.469 34.883,170.8 H 103.52"
           fill="#ffffff"
           id="path9" />
        <path
           shape-rendering="geometricPrecision"
           d="M 34.863,271 0,100.19 h 68.266 l 34.894,170.5 -68.297,0.309"
           fill="#149e75"
           id="path10" />
      </g>
    </g>
  </g>
</svg>
